<?xml version="1.0" standalone="no"?>
<!DOCTYPE svg PUBLIC "-//W3C//DTD SVG 20010904//EN"
 "http://www.w3.org/TR/2001/REC-SVG-20010904/DTD/svg10.dtd">
<svg version="1.0" xmlns="http://www.w3.org/2000/svg"
 width="1000.000000pt" height="1000.000000pt" viewBox="0 0 1000.000000 1000.000000"
 preserveAspectRatio="xMidYMid meet">
<metadata>
Created by potrace 1.11, written by Peter Selinger 2001-2013
</metadata>
<g transform="translate(0.000000,1000.000000) scale(0.100000,-0.100000)"
fill="#000000" stroke="none">
<path d="M6188 9975 c-2 -2 -75 -6 -163 -9 -88 -3 -178 -8 -200 -10 -22 -2
-71 -7 -110 -10 -38 -4 -90 -9 -115 -12 -25 -3 -58 -7 -75 -8 -16 -2 -46 -6
-65 -9 -19 -4 -53 -9 -75 -11 -22 -3 -51 -8 -65 -10 -14 -3 -47 -8 -75 -11
-58 -8 -79 -11 -120 -19 -16 -3 -50 -9 -75 -12 -25 -3 -54 -8 -65 -10 -11 -3
-36 -7 -55 -10 -19 -3 -46 -7 -60 -10 -14 -3 -34 -6 -45 -8 -11 -2 -56 -11
-100 -20 -44 -9 -91 -18 -105 -21 -14 -3 -36 -7 -50 -10 -14 -3 -34 -7 -45 -9
-11 -2 -79 -18 -152 -35 -72 -17 -142 -33 -155 -35 -13 -3 -68 -17 -123 -32
-55 -14 -108 -27 -118 -29 -9 -2 -21 -6 -25 -9 -5 -3 -19 -7 -33 -10 -13 -3
-58 -14 -99 -26 -41 -12 -82 -23 -90 -25 -8 -2 -60 -18 -115 -36 -55 -18 -104
-33 -110 -35 -24 -4 -243 -77 -272 -90 -17 -8 -33 -14 -36 -14 -3 0 -18 -5
-34 -11 -15 -6 -30 -11 -33 -11 -5 0 -70 -25 -115 -43 -11 -4 -24 -9 -30 -11
-5 -1 -23 -8 -40 -15 -16 -7 -32 -13 -35 -14 -3 -1 -14 -5 -25 -10 -11 -4 -42
-17 -70 -27 -27 -10 -59 -23 -70 -28 -52 -24 -114 -50 -119 -50 -2 0 -39 -16
-80 -35 -42 -19 -78 -35 -81 -35 -3 0 -67 -30 -142 -67 -76 -37 -140 -67 -143
-67 -3 0 -27 -13 -55 -29 -27 -16 -79 -45 -115 -64 -95 -50 -208 -113 -225
-126 -30 -22 -218 -137 -225 -137 -5 0 -10 -4 -12 -8 -2 -5 -37 -31 -78 -59
-41 -28 -105 -74 -141 -104 -37 -30 -84 -67 -105 -84 -52 -40 -282 -271 -314
-314 -14 -19 -32 -41 -41 -50 -8 -9 -29 -34 -45 -56 -16 -22 -31 -42 -34 -45
-14 -13 -90 -138 -90 -147 0 -6 -3 -13 -7 -15 -20 -8 -109 -230 -119 -297 -3
-20 -8 -39 -10 -43 -10 -15 -19 -130 -18 -228 1 -125 8 -176 39 -266 9 -27 18
-56 20 -64 15 -67 160 -304 234 -383 165 -176 373 -296 558 -322 16 -2 44 -6
64 -10 20 -3 78 -7 128 -9 173 -5 257 51 286 189 34 168 41 250 23 313 -19 69
-67 227 -103 342 -15 47 -28 90 -29 95 -6 24 -37 131 -43 145 -3 8 -7 20 -8
25 -2 6 -12 40 -23 77 -12 37 -19 77 -16 90 2 13 7 39 10 58 14 83 91 207 210
336 74 81 125 134 129 134 2 0 17 12 32 26 15 15 60 52 98 82 39 31 75 60 80
64 6 5 33 23 60 40 28 18 52 35 55 38 10 11 112 70 121 70 5 0 9 3 9 8 0 4 21
18 48 32 26 13 49 27 52 30 7 7 37 24 150 83 52 28 98 55 101 60 3 5 9 8 12 8
4 0 90 40 192 89 101 50 187 90 190 90 2 0 32 13 65 29 33 16 60 28 60 26 0
-2 27 10 60 26 33 16 62 29 65 29 2 0 16 5 32 12 15 6 33 12 38 14 6 1 28 10
50 20 22 10 43 19 48 20 4 1 9 3 12 4 3 1 8 3 13 5 4 1 18 6 32 12 37 15 322
114 345 120 11 3 29 9 40 13 28 12 246 79 276 84 13 3 24 5 24 6 0 2 21 6 66
14 33 5 36 4 33 -17 -2 -12 -5 -38 -8 -57 -14 -96 -17 -119 -23 -146 -3 -16
-6 -48 -7 -71 0 -24 -3 -43 -6 -43 -3 0 -7 -19 -9 -43 -4 -58 -9 -92 -11 -92
-1 0 -3 -18 -5 -40 -1 -22 -6 -58 -10 -80 -4 -22 -8 -51 -10 -65 -2 -14 -6
-47 -9 -75 -11 -84 -26 -225 -31 -290 -2 -22 -7 -65 -10 -95 -7 -60 -13 -122
-20 -215 -3 -33 -7 -78 -10 -100 -3 -22 -7 -60 -9 -85 -3 -25 -7 -70 -11 -101
-3 -30 -8 -80 -10 -110 -2 -30 -6 -72 -9 -94 -2 -22 -7 -71 -11 -110 -4 -38
-9 -83 -11 -100 -2 -16 -6 -73 -9 -125 -3 -52 -8 -120 -10 -150 -3 -30 -7 -91
-9 -135 -3 -44 -6 -80 -6 -80 -1 0 -3 -27 -5 -60 -3 -56 -9 -156 -20 -320 -2
-38 -7 -119 -10 -180 -3 -60 -7 -148 -11 -195 -3 -47 -7 -124 -8 -173 -2 -48
-6 -90 -9 -94 -4 -3 -2 -14 4 -24 5 -11 6 -19 2 -19 -4 0 -9 -26 -9 -58 -1
-31 -5 -136 -9 -232 -26 -608 -29 -862 -29 -1980 0 -1285 6 -1663 30 -1905 3
-33 7 -82 9 -110 1 -27 4 -50 5 -50 1 0 3 -22 6 -50 2 -27 11 -97 20 -155 9
-58 17 -116 19 -130 2 -14 11 -54 19 -90 8 -36 18 -80 21 -99 3 -19 10 -41 15
-51 5 -9 11 -27 13 -41 2 -13 10 -40 19 -59 8 -19 21 -52 28 -73 8 -20 18 -37
23 -37 4 0 5 -4 2 -10 -3 -5 -2 -10 3 -10 5 0 12 -8 16 -17 17 -51 135 -183
164 -183 6 0 12 -4 12 -8 0 -6 49 -29 70 -33 3 -1 14 -6 25 -12 11 -6 25 -12
30 -13 6 -1 30 -7 55 -15 67 -19 53 -16 205 -34 72 -9 248 -9 290 -1 17 3 48
8 70 11 44 7 77 12 85 15 9 4 25 7 41 8 8 1 29 16 46 32 46 45 47 86 4 179
-20 42 -39 78 -43 79 -5 2 -8 11 -8 21 0 9 -4 21 -9 27 -6 5 -20 45 -32 89
-16 61 -22 116 -25 230 -2 83 -7 166 -10 185 -10 59 -3 824 11 1125 12 263 14
300 21 390 4 50 8 105 8 122 1 18 3 33 6 33 3 0 5 21 6 48 0 26 4 85 8 132 5
47 9 101 11 120 11 149 19 230 24 248 1 1 19 -9 41 -23 22 -14 44 -25 50 -25
5 0 10 -4 10 -10 0 -5 11 -12 25 -16 14 -3 25 -9 25 -13 0 -4 24 -19 53 -35
28 -15 84 -47 122 -71 94 -59 200 -107 265 -120 36 -7 158 -19 194 -18 49 1
243 13 276 18 127 17 149 21 212 34 95 21 173 43 187 54 12 9 13 9 7 -1 -6
-10 -1 -10 21 -1 67 27 164 62 178 65 6 1 35 13 65 26 30 14 58 26 62 27 40
11 417 226 438 250 3 3 29 22 57 41 29 19 53 38 53 43 0 4 5 7 11 7 6 0 28 14
48 30 20 17 41 34 46 38 14 10 122 100 165 137 53 47 312 308 340 344 14 17
42 51 63 74 21 23 57 68 80 100 23 31 45 57 49 57 5 0 8 6 8 14 0 7 6 19 14
25 23 19 179 258 255 391 97 168 251 483 251 512 0 8 4 18 8 23 5 6 14 24 20
40 6 17 17 44 23 60 7 17 13 33 14 38 2 4 3 8 5 10 1 1 3 9 5 17 1 8 12 38 23
66 12 29 18 55 15 58 -4 3 -2 6 3 6 5 0 10 9 11 20 1 10 8 34 17 52 12 28 62
193 71 238 2 8 13 52 24 97 12 46 23 95 25 110 3 16 7 38 9 49 3 12 8 37 11
55 3 19 8 45 11 59 6 28 17 102 20 140 2 14 4 25 5 25 2 0 4 14 5 30 2 17 4
47 6 68 2 20 7 37 11 37 5 0 4 8 -1 19 -6 10 -8 21 -5 24 9 8 18 188 18 347 0
144 -6 250 -29 525 -3 33 -7 84 -9 112 -2 29 -7 65 -10 80 -3 16 -8 51 -11 78
-3 28 -11 68 -16 90 -6 21 -12 51 -14 65 -1 14 -4 32 -7 40 -6 18 -76 294 -84
330 -3 13 -10 30 -16 37 -6 7 -8 13 -5 13 22 0 -195 508 -225 526 -4 3 -6 9
-3 14 3 5 -1 14 -8 22 -7 7 -18 24 -25 38 -6 14 -20 39 -30 55 -10 17 -33 56
-52 88 -52 86 -54 89 -75 122 -32 49 -114 156 -143 186 -15 15 -43 45 -63 66
-51 53 -151 141 -203 178 -16 11 -37 28 -48 38 -10 9 -19 16 -20 15 -2 -1 -23
12 -48 28 -56 36 -156 91 -192 107 -16 6 -28 15 -28 19 0 4 -6 8 -13 8 -7 0
-38 12 -67 26 -58 28 -99 45 -115 50 -5 1 -41 15 -80 31 -63 27 -246 86 -302
98 -54 12 -66 14 -81 19 -9 3 -33 8 -52 11 -19 3 -57 10 -85 15 -52 10 -104
17 -174 25 -74 9 -116 14 -136 19 -11 2 -56 7 -100 10 -44 4 -92 9 -107 12
-40 6 -202 15 -388 20 -91 2 -173 6 -182 8 -9 2 -18 3 -20 1z m-181 -758 c6
-4 14 -3 18 3 4 6 10 8 15 5 8 -5 74 -10 240 -20 36 -2 94 -6 130 -9 36 -3 92
-8 125 -11 102 -8 179 -16 203 -21 12 -2 43 -7 69 -10 26 -3 55 -9 64 -14 9
-5 19 -7 22 -4 2 3 42 -4 88 -16 46 -11 95 -23 109 -26 14 -3 61 -17 105 -32
44 -14 82 -26 85 -27 3 0 32 -11 65 -24 153 -60 326 -145 362 -178 7 -6 22
-15 33 -18 11 -3 20 -11 20 -16 0 -5 4 -9 10 -9 35 0 264 -207 365 -330 20
-25 44 -54 53 -65 10 -11 32 -42 49 -70 18 -27 36 -54 41 -60 16 -20 80 -162
100 -220 6 -16 13 -39 18 -50 9 -25 12 -34 18 -63 3 -13 7 -31 10 -40 3 -9 8
-30 10 -47 3 -16 10 -54 16 -84 41 -218 31 -573 -24 -866 -2 -11 -7 -39 -11
-62 -4 -24 -11 -45 -16 -49 -5 -3 -7 -9 -4 -14 3 -5 -2 -38 -11 -72 -9 -35
-18 -70 -19 -78 -1 -8 -5 -22 -8 -30 -6 -15 -65 -211 -72 -240 -7 -25 -46
-133 -61 -167 -8 -17 -14 -34 -14 -37 0 -13 -122 -311 -132 -323 -6 -7 -8 -13
-5 -13 3 0 -10 -32 -29 -70 -19 -39 -34 -73 -34 -75 0 -11 -74 -160 -83 -166
-5 -3 -8 -9 -8 -13 2 -9 -114 -238 -144 -287 -14 -22 -30 -50 -36 -62 -5 -12
-18 -35 -29 -52 -11 -16 -27 -43 -35 -60 -9 -16 -24 -43 -35 -60 -11 -16 -25
-41 -32 -55 -7 -14 -41 -67 -75 -119 -35 -51 -63 -96 -63 -98 0 -7 -54 -78
-62 -81 -5 -2 -8 -8 -8 -13 0 -5 -22 -39 -50 -74 -27 -35 -50 -67 -50 -70 0
-3 -8 -13 -17 -23 -34 -35 -63 -72 -63 -80 0 -4 -9 -13 -20 -20 -11 -7 -20
-17 -20 -23 0 -5 -10 -20 -22 -33 -13 -13 -52 -56 -88 -97 -131 -147 -284
-295 -390 -376 -30 -23 -59 -46 -65 -50 -94 -73 -296 -169 -391 -187 -16 -2
-40 -7 -54 -11 -29 -6 -188 -7 -240 -1 -93 10 -203 51 -256 94 -81 67 -138
232 -159 467 -18 194 -21 368 -10 635 4 102 8 224 9 272 0 49 3 88 6 88 3 0 6
48 6 108 1 105 11 381 19 557 11 227 27 662 28 797 1 60 4 108 7 108 3 0 5 42
6 93 1 50 4 160 7 242 4 83 9 211 12 285 5 151 13 349 21 519 2 62 7 179 9
260 10 309 15 403 20 412 4 5 3 9 -2 9 -4 0 -8 15 -9 33 0 33 -43 137 -66 161
-7 8 -24 29 -38 47 -91 120 -258 236 -430 298 -19 7 -44 17 -55 22 -11 4 -63
20 -115 35 -52 14 -99 31 -105 36 -7 7 -3 8 13 3 13 -4 22 -2 22 4 0 6 3 10 8
9 10 -3 146 15 212 27 14 3 50 7 80 10 110 11 136 14 165 19 17 2 61 8 100 11
38 4 71 8 73 10 7 6 488 -1 499 -8z"/>
</g>
</svg>
